<svg xmlns="http://www.w3.org/2000/svg" width="1600" height="1120" viewBox="0 0 1600 1120" fill="none">
  <defs>
    <linearGradient id="bg" x1="160" y1="72" x2="1408" y2="1012" gradientUnits="userSpaceOnUse">
      <stop stop-color="#0F172A" />
      <stop offset="0.52" stop-color="#111827" />
      <stop offset="1" stop-color="#1E293B" />
    </linearGradient>
    <linearGradient id="glow" x1="380" y1="210" x2="1150" y2="800" gradientUnits="userSpaceOnUse">
      <stop stop-color="#F59E0B" stop-opacity="0.8" />
      <stop offset="1" stop-color="#F97316" stop-opacity="0.05" />
    </linearGradient>
    <linearGradient id="screen" x1="1030" y1="232" x2="1360" y2="530" gradientUnits="userSpaceOnUse">
      <stop stop-color="#1D4ED8" />
      <stop offset="1" stop-color="#0EA5E9" />
    </linearGradient>
  </defs>

  <rect width="1600" height="1120" fill="url(#bg)" />
  <circle cx="280" cy="210" r="220" fill="#F97316" fill-opacity="0.12" />
  <circle cx="1260" cy="140" r="180" fill="#38BDF8" fill-opacity="0.14" />
  <circle cx="1130" cy="840" r="320" fill="url(#glow)" />

  <g opacity="0.18">
    <path d="M115 958L548 525" stroke="#CBD5E1" stroke-width="2" />
    <path d="M295 1005L728 572" stroke="#CBD5E1" stroke-width="2" />
    <path d="M0 774L433 341" stroke="#CBD5E1" stroke-width="2" />
  </g>

  <g filter="url(#none)">
    <rect x="146" y="226" width="908" height="548" rx="34" fill="#020617" fill-opacity="0.72" stroke="#334155" />
    <rect x="200" y="278" width="370" height="28" rx="14" fill="#1E293B" />
    <rect x="200" y="330" width="514" height="20" rx="10" fill="#334155" />
    <rect x="200" y="372" width="428" height="20" rx="10" fill="#334155" />

    <rect x="200" y="456" width="800" height="252" rx="24" fill="#0F172A" stroke="#1E293B" />
    <path d="M248 514H606" stroke="#60A5FA" stroke-width="8" stroke-linecap="round" />
    <path d="M248 560H762" stroke="#F8FAFC" stroke-width="8" stroke-linecap="round" opacity="0.92" />
    <path d="M248 606H718" stroke="#CBD5E1" stroke-width="8" stroke-linecap="round" opacity="0.78" />
    <path d="M248 652H540" stroke="#94A3B8" stroke-width="8" stroke-linecap="round" opacity="0.72" />
  </g>

  <rect x="978" y="202" width="446" height="610" rx="34" fill="#F8FAFC" fill-opacity="0.08" stroke="#334155" />
  <rect x="1032" y="258" width="188" height="34" rx="17" fill="#FFF7ED" />
  <text x="1060" y="280" fill="#C2410C" font-family="Georgia, serif" font-size="20" font-weight="700">FEATURED STORY</text>

  <text x="1032" y="382" fill="#F8FAFC" font-family="system-ui, sans-serif" font-size="68" font-weight="800">
    <tspan x="1032" y="382">A placeholder image</tspan>
    <tspan x="1032" y="458">for future post</tspan>
    <tspan x="1032" y="534">cover artwork</tspan>
  </text>

  <text x="1032" y="624" fill="#CBD5E1" font-family="system-ui, sans-serif" font-size="28">
    <tspan x="1032" y="624">Use this until posts support uploaded</tspan>
    <tspan x="1032" y="664">images or external media assets.</tspan>
  </text>

  <rect x="1032" y="722" width="304" height="66" rx="18" fill="url(#screen)" />
  <text x="1085" y="764" fill="#F8FAFC" font-family="system-ui, sans-serif" font-size="28" font-weight="700">Read article</text>
</svg>
